Coordinates
version=1
nRows=14
nColumns=40
inDegrees=yes

Units are S.I. units (second, meters, Newtons, ...)
Angles are in degrees.

endheader
time	pelvis_tilt	pelvis_list	pelvis_rotation	pelvis_tx	pelvis_ty	pelvis_tz	hip_flexion_r	hip_adduction_r	hip_rotation_r	knee_angle_r	knee_angle_r_beta	ankle_angle_r	subtalar_angle_r	mtp_angle_r	hip_flexion_l	hip_adduction_l	hip_rotation_l	knee_angle_l	knee_angle_l_beta	ankle_angle_l	subtalar_angle_l	mtp_angle_l	lumbar_extension	lumbar_bending	lumbar_rotation	arm_flex_r	arm_add_r	arm_rot_r	elbow_flex_r	pro_sup_r	wrist_flex_r	wrist_dev_r	arm_flex_l	arm_add_l	arm_rot_l	elbow_flex_l	pro_sup_l	wrist_flex_l	wrist_dev_l
      0.00000000	     -2.89114293	      0.20328142	     -3.09882586	     -0.97699104	      0.88914214	      1.08987329	     16.73341197	     -7.91894119	     -7.22809815	    -69.66426560	     -1.21587081	    -12.74920378	    -16.49609073	     20.03583250	     19.40063382	     -4.16595774	     13.02284170	    -32.79426346	     -0.57236787	     12.81791743	     14.94365814	      3.90546792	     -6.46380076	     -4.56413018	     -4.89438806	     -9.44975705	    -10.92332806	     -9.56924343	     47.70912540	     89.95437384	      0.00000000	      0.00000000	     -5.52694384	      8.78933907	     19.89372479	     31.57373351	     89.95437384	      0.00000000	      0.00000000
      0.01000000	     -2.94608477	     -0.03910764	     -2.45358873	     -0.96470134	      0.89047211	      1.08985187	     18.37804604	     -7.44039343	     -7.29638334	    -69.77365317	     -1.21777998	    -11.35625247	    -16.51965205	     19.51031549	     18.19928595	     -4.10376868	     12.50603363	    -32.15905094	     -0.56128132	     13.16783798	     14.47292295	      3.79922359	     -6.43465625	     -4.29670984	     -5.41076986	     -9.69386878	    -10.60098919	     -9.88876586	     46.37196852	     89.95437384	      0.00000000	      0.00000000	     -4.86848969	      8.96434772	     19.54158733	     32.99558287	     89.95437384	      0.00000000	      0.00000000
      0.02000000	     -2.82172921	     -0.20534689	     -1.53766680	     -0.95204218	      0.89182212	      1.08909147	     19.66387519	     -7.38832830	     -7.87167490	    -69.61727493	     -1.21505066	     -9.64180953	    -16.20535944	     19.10059650	     16.78326601	     -4.20122875	     11.87356448	    -31.50512740	     -0.54986820	     13.50019328	     14.21906504	      3.67144938	     -6.58970676	     -4.04213627	     -6.22594393	     -9.97111303	    -10.35546054	    -10.23709190	     45.06557697	     89.95437384	      0.00000000	      0.00000000	     -4.36544547	      9.16981311	     18.99457388	     34.71068019	     89.95437384	      0.00000000	      0.00000000
      0.03000000	     -2.91425857	     -0.44248246	     -0.81809997	     -0.93973080	      0.89280478	      1.08881173	     21.20496058	     -7.08287302	     -8.14391122	    -69.17071137	     -1.20725666	     -8.13246211	    -16.23225567	     18.67991610	     15.65235011	     -4.09212010	     11.38783697	    -30.90330454	     -0.53936441	     13.82012397	     13.72403716	      3.51839918	     -6.50978159	     -3.74090171	     -6.81998865	    -10.19512508	    -10.06789739	    -10.67691143	     43.63871663	     89.95437384	      0.00000000	      0.00000000	     -3.77794012	      9.29864754	     18.76865250	     36.36921173	     89.95437384	      0.00000000	      0.00000000
      0.04000000	     -2.89790982	     -0.60665418	     -0.10867352	     -0.92722386	      0.89375014	      1.08850829	     22.52927465	     -6.96612364	     -8.53397817	    -68.39624254	     -1.19373963	     -6.65275363	    -16.26872665	     18.36188869	     14.37555692	     -4.01603514	     11.03893902	    -30.27066062	     -0.52832269	     14.10072430	     13.18536321	      3.33165479	     -6.52718254	     -3.52789874	     -7.43776507	    -10.43171627	     -9.76988469	    -11.13928870	     42.25245749	     89.95437384	      0.00000000	      0.00000000	     -3.33833455	      9.51907056	     18.39102648	     38.28474373	     89.95437384	      0.00000000	      0.00000000
      0.05000000	     -2.96107477	     -0.73443114	      0.50811243	     -0.91466532	      0.89436864	      1.08824971	     23.87217330	     -6.85948407	     -8.82441535	    -67.33666665	     -1.17524654	     -5.41829485	    -16.40878514	     18.12032224	     13.15670029	     -3.94157219	     10.85199941	    -29.56202884	     -0.51595474	     14.34469743	     12.68899373	      3.16648096	     -6.42414324	     -3.35718788	     -7.93525866	    -10.70138207	     -9.51194801	    -11.65875166	     40.85959062	     89.95437384	      0.00000000	      0.00000000	     -2.92027814	      9.70491042	     18.03605722	     40.22548467	     89.95437384	      0.00000000	      0.00000000
      0.06000000	     -2.78628367	     -0.81160619	      1.16798506	     -0.90190766	      0.89521912	      1.08792859	     24.78749021	     -6.89844030	     -9.25557207	    -65.89122838	     -1.15001888	     -4.25847350	    -16.55497187	     18.09975370	     11.62365400	     -3.89723472	     10.79374108	    -28.73156896	     -0.50146048	     14.58839762	     12.18876542	      2.90038828	     -6.60950976	     -3.23079169	     -8.51323057	    -10.87340484	     -9.25123233	    -12.10142872	     39.35459763	     89.95437384	      0.00000000	      0.00000000	     -2.51023418	      9.95256402	     17.63912702	     42.21536139	     89.95437384	      0.00000000	      0.00000000
      0.07000000	     -2.99831280	     -0.88154444	      1.70928600	     -0.88949353	      0.89520932	      1.08776200	     26.17143373	     -6.84398153	     -9.43414445	    -64.30005706	     -1.12224770	     -3.38755741	    -16.66476748	     17.89884587	     10.60236670	     -3.77984629	     10.89379979	    -28.12809275	     -0.49092783	     14.74924750	     11.83367884	      2.75406373	     -6.33282182	     -3.11313824	     -8.89087124	    -11.23831243	     -9.08959494	    -12.42048885	     38.09378612	     89.95437384	      0.00000000	      0.00000000	     -1.92345038	     10.12496459	     17.36682583	     43.85748587	     89.95437384	      0.00000000	      0.00000000
      0.08000000	     -2.92298629	     -0.88331371	      2.13449474	     -0.87671676	      0.89553975	      1.08781246	     27.04514400	     -6.79485370	     -9.57001109	    -62.28272641	     -1.08703864	     -2.20097009	    -17.06684405	     17.94789833	      9.10884927	     -3.76904343	     10.87053178	    -27.20613988	     -0.47483672	     15.02747692	     11.13462604	      2.50834778	     -6.39506159	     -3.10325038	     -9.30984367	    -11.19047502	     -8.81453075	    -13.03210179	     36.20054871	     89.95437384	      0.00000000	      0.00000000	     -1.63353870	     10.44696240	     16.98632356	     45.98511888	     89.95437384	      0.00000000	      0.00000000
      0.09000000	     -2.43858584	     -0.84045353	      2.62228063	     -0.86345183	      0.89631965	      1.08761481	     27.21616941	     -6.86919721	     -9.88478260	    -59.83423735	     -1.04430445	     -1.14433549	    -17.14869195	     18.68092633	      7.08786943	     -3.67091886	     11.39144508	    -26.18323869	     -0.45698372	     14.81700252	      9.99341989	      1.96759788	     -6.88768438	     -3.07304178	     -9.68397054	    -11.32280916	     -8.62512676	    -13.55247887	     34.70327790	     89.95437384	      0.00000000	      0.00000000	     -1.08806008	     10.67154709	     16.77464166	     47.79350452	     89.95437384	      0.00000000	      0.00000000
      0.10000000	     -2.28551463	     -0.86275470	      2.96587452	     -0.85041680	      0.89633284	      1.08781297	     27.74304536	     -6.72597019	     -9.94673804	    -57.20926824	     -0.99849009	     -0.01129899	    -17.30441029	     19.78883957	      5.53686865	     -3.42900955	     12.09373980	    -25.36025313	     -0.44261992	     14.74172714	      8.61680923	      1.07167382	     -7.00387633	     -3.00378676	     -9.92269504	    -11.49092581	     -8.49536849	    -13.93464252	     33.20450907	     89.95437384	      0.00000000	      0.00000000	     -0.53526149	     10.88507716	     16.62674938	     49.47603169	     89.95437384	      0.00000000	      0.00000000
      0.11000000	     -2.53358366	     -0.70612488	      3.31707906	     -0.83777724	      0.89547952	      1.08794618	     28.73247631	     -6.82696677	     -9.95907386	    -54.41480058	     -0.94971743	      0.76123662	    -17.39309771	     19.78507281	      4.58053237	     -3.50708098	     12.48760768	    -24.79575659	     -0.43276759	     14.88987024	      8.12718901	      0.82391594	     -6.68891137	     -3.17346949	    -10.20818944	    -11.56157660	     -8.35934191	    -14.23292662	     31.51004227	     89.95437384	      0.00000000	      0.00000000	     -0.05156721	     11.22371774	     16.30525290	     51.21958285	     89.95437384	      0.00000000	      0.00000000
      0.12000000	     -2.16090934	     -0.66047949	      3.74997593	     -0.82448390	      0.89554437	      1.08796690	     28.67638553	     -6.81020960	    -10.18931256	    -51.15165692	     -0.89276483	      1.50937587	    -17.37758888	     20.47234628	      2.79559124	     -3.29399064	     13.18109942	    -24.01861169	     -0.41920386	     14.58472714	      6.73602331	      0.17118644	     -7.05665654	     -3.14613053	    -10.52690937	    -11.66528944	     -8.24372461	    -14.63865162	     30.01931706	     89.95437384	      0.00000000	      0.00000000	      0.56521131	     11.43526769	     16.27145586	     52.82668622	     89.95437384	      0.00000000	      0.00000000
      0.13000000	     -2.70173856	     -0.25616334	      4.08824038	     -0.81183999	      0.89378423	      1.08789622	     29.84996261	     -7.31598254	    -10.33236453	    -48.10270062	     -0.83955050	      2.04103531	    -16.93803929	     20.11376811	      2.31072151	     -3.61002567	     13.65063533	    -23.80644737	     -0.41550089	     14.69687843	      6.37116260	      0.05835663	     -6.40540776	     -3.56898299	    -10.64850621	    -12.26396415	     -8.20272007	    -14.60789964	     29.19337897	     89.95437384	      0.00000000	      0.00000000	      1.26997575	     11.64644679	     16.06412628	     54.12790618	     89.95437384	      0.00000000	      0.00000000
